<svg width="123" height="123" viewBox="0 0 123 123" fill="none" xmlns="http://www.w3.org/2000/svg">
<g clip-path="url(#clip0)">
<path d="M61.3187 99.643C88.8403 99.643 111.14 77.3431 111.14 49.8215C111.14 22.2999 88.8403 0 61.3187 0C33.7972 0 11.4973 22.2999 11.4973 49.8215C11.4973 77.3431 33.7972 99.643 61.3187 99.643ZM56.0013 23.3299V19.3058C56.0013 17.1022 57.7738 15.3297 59.9774 15.3297H62.6361C64.8398 15.3297 66.6123 17.1022 66.6123 19.3058V23.3778C70.3249 23.5694 73.9178 24.8389 76.9119 27.0665C78.2533 28.0485 78.397 30.0127 77.1993 31.1624L73.2951 34.875C72.3849 35.7613 71.0196 35.7852 69.9417 35.1146C68.6483 34.3002 67.2111 33.893 65.6781 33.893H56.3606C54.2048 33.893 52.4563 35.8571 52.4563 38.2763C52.4563 40.2404 53.6539 41.989 55.3545 42.492L70.277 46.9711C76.4329 48.8155 80.7443 54.7318 80.7443 61.3667C80.7443 69.5106 74.4208 76.0975 66.5883 76.3131V80.3371C66.5883 82.5408 64.8158 84.3133 62.6122 84.3133H59.9534C57.7498 84.3133 55.9773 82.5408 55.9773 80.3371V76.2652C52.2647 76.0736 48.6718 74.8041 45.6777 72.5765C44.3363 71.5944 44.1926 69.6303 45.3902 68.4806L49.2945 64.7679C50.2047 63.8817 51.57 63.8577 52.6479 64.5284C53.9413 65.3428 55.3785 65.75 56.9115 65.75H66.229C68.3848 65.75 70.1333 63.7859 70.1333 61.3667C70.1333 59.4025 68.9357 57.654 67.2351 57.151L52.3126 52.6718C46.1567 50.8275 41.8453 44.9112 41.8453 38.2763C41.8692 30.1324 48.1688 23.5454 56.0013 23.3299V23.3299ZM114.973 84.3133H107.188C102.493 90.541 96.5052 95.7387 89.7026 99.643H104.984C106.254 99.643 107.284 100.505 107.284 101.559V105.392C107.284 106.446 106.254 107.308 104.984 107.308H17.6291C16.3597 107.308 15.3297 106.446 15.3297 105.392V101.559C15.3297 100.505 16.3597 99.643 17.6291 99.643H32.9109C26.1084 95.7387 20.1442 90.541 15.4255 84.3133H7.66484C3.42523 84.3133 0 87.7385 0 91.9781V114.973C0 119.212 3.42523 122.637 7.66484 122.637H114.973C119.212 122.637 122.637 119.212 122.637 114.973V91.9781C122.637 87.7385 119.212 84.3133 114.973 84.3133Z" fill="#C7C3C3"/>
</g>
<defs>
<clipPath id="clip0">
<rect width="122.637" height="122.637" fill="white"/>
</clipPath>
</defs>
</svg>
