<svg width="123" height="92" viewBox="0 0 123 92" fill="none" xmlns="http://www.w3.org/2000/svg">
<path d="M119.253 21.3664L65.8017 0.838941C62.8891 -0.279647 59.7465 -0.279647 56.8358 0.838941L3.38307 21.3664C-1.12769 23.0981 -1.12769 30.5546 3.38307 32.2864L12.7016 35.8649C10.657 39.0242 9.39997 42.8782 9.27542 47.0987C7.43011 48.4209 6.13092 50.8065 6.13092 53.6545C6.13092 56.2366 7.21933 58.4091 8.78679 59.7984L3.8947 87.3151C3.4693 89.708 4.92562 91.9787 6.8859 91.9787H17.6378C19.6 91.9787 21.0563 89.708 20.6309 87.3151L15.7388 59.7984C17.3063 58.4091 18.3947 56.2366 18.3947 53.6545C18.3947 50.8832 17.1549 48.5646 15.3939 47.2184C15.5395 43.6207 17.0112 40.4398 19.3585 38.423L56.8339 52.8162C58.5699 53.482 61.9003 54.3132 65.7998 52.8162L119.253 32.2888C123.765 30.5546 123.765 23.1005 119.253 21.3664V21.3664ZM67.601 60.1433C62.1341 62.2415 57.4758 61.0822 55.0326 60.1433L27.2437 49.4724L24.5265 76.649C24.5265 85.1163 40.9983 91.9787 61.3178 91.9787C81.6373 91.9787 98.109 85.1163 98.109 76.649L95.3919 49.47L67.601 60.1433V60.1433Z" fill="#C7C3C3"/>
</svg>
