<svg width="124" height="108" viewBox="0 0 124 108" fill="none" xmlns="http://www.w3.org/2000/svg">
<path d="M89.0857 38.3242C89.0857 17.1501 69.2635 0 44.7999 0C20.3363 0 0.51416 17.1501 0.51416 38.3242C0.51416 46.54 3.51622 54.109 8.60483 60.3606C5.7518 67.5943 1.04644 73.343 0.982567 73.4148C0.51416 73.9657 0.386413 74.7801 0.663199 75.4987C0.939985 76.2173 1.53614 76.6484 2.21746 76.6484C10.01 76.6484 16.4613 73.7023 21.1028 70.6603C27.9586 74.4208 36.0705 76.6484 44.7999 76.6484C69.2635 76.6484 89.0857 59.4983 89.0857 38.3242ZM115.061 91.02C120.15 84.7923 123.152 77.1993 123.152 68.9836C123.152 52.9593 111.761 39.2344 95.6221 33.5097C95.8137 35.0906 95.8989 36.6954 95.8989 38.3242C95.8989 63.6901 72.9682 84.3133 44.7999 84.3133C42.5005 84.3133 40.2649 84.1217 38.0506 83.8582C44.7573 97.6309 60.5129 107.308 78.8659 107.308C87.5953 107.308 95.7073 105.104 102.563 101.32C107.205 104.362 113.656 107.308 121.448 107.308C122.13 107.308 122.747 106.853 123.003 106.158C123.279 105.463 123.152 104.649 122.683 104.074C122.619 104.002 117.914 98.2777 115.061 91.02Z" fill="#C7C3C3"/>
</svg>
