<svg width="33" height="33" viewBox="0 0 33 33" fill="none" xmlns="http://www.w3.org/2000/svg">
<g clip-path="url(#clip0)">
<path d="M29.4643 2.0625H3.53571C2.59798 2.0625 1.69866 2.38845 1.03559 2.96864C0.372512 3.54883 0 4.33574 0 5.15625L0 27.8438C0 28.6643 0.372512 29.4512 1.03559 30.0314C1.69866 30.6116 2.59798 30.9375 3.53571 30.9375H13.6456V21.1206H9.00502V16.5H13.6456V12.9783C13.6456 8.97252 16.3711 6.75984 20.5454 6.75984C22.5446 6.75984 24.6351 7.0718 24.6351 7.0718V11.0034H22.3317C20.0622 11.0034 19.3544 12.2358 19.3544 13.4997V16.5H24.4207L23.6105 21.1206H19.3544V30.9375H29.4643C30.402 30.9375 31.3013 30.6116 31.9644 30.0314C32.6275 29.4512 33 28.6643 33 27.8438V5.15625C33 4.33574 32.6275 3.54883 31.9644 2.96864C31.3013 2.38845 30.402 2.0625 29.4643 2.0625V2.0625Z" fill="#FF7628"/>
</g>
<defs>
<clipPath id="clip0">
<rect width="33" height="33" fill="white"/>
</clipPath>
</defs>
</svg>
