<svg width="33" height="33" viewBox="0 0 33 33" fill="none" xmlns="http://www.w3.org/2000/svg">
<path d="M29.4643 0H3.53571C1.58297 0 0 1.58297 0 3.53571V29.4643C0 31.417 1.58297 33 3.53571 33H29.4643C31.417 33 33 31.417 33 29.4643V3.53571C33 1.58297 31.417 0 29.4643 0ZM13.1202 16.9496C6.44008 12.1015 6.50815 12.0893 4.71429 10.6931V8.83929C4.71429 7.86291 5.50577 7.07143 6.48214 7.07143H26.5179C27.4942 7.07143 28.2857 7.86291 28.2857 8.83929V10.6931C26.4905 12.0904 26.5596 12.1018 19.8798 16.9497C19.1063 17.5136 17.5674 18.8737 16.5 18.8571C15.4317 18.8731 13.8948 17.5145 13.1202 16.9496ZM28.2857 13.6843V24.1607C28.2857 25.1371 27.4942 25.9286 26.5179 25.9286H6.48214C5.50577 25.9286 4.71429 25.1371 4.71429 24.1607V13.6843C5.74244 14.4794 7.16932 15.5432 11.7344 18.8563C12.7776 19.6181 14.5316 21.2242 16.4998 21.2142C18.4803 21.2241 20.2592 19.5907 21.2671 18.8552C25.831 15.5431 27.2576 14.4793 28.2857 13.6843Z" fill="#FF7628"/>
</svg>
