<svg width="34" height="33" viewBox="0 0 34 33" fill="none" xmlns="http://www.w3.org/2000/svg">
<path d="M30.3571 2.0625H3.64286C1.6317 2.0625 0 3.44824 0 5.15625V27.8438C0 29.5518 1.6317 30.9375 3.64286 30.9375H30.3571C32.3683 30.9375 34 29.5518 34 27.8438V5.15625C34 3.44824 32.3683 2.0625 30.3571 2.0625ZM26.646 12.2977C26.6612 12.4781 26.6612 12.665 26.6612 12.8455C26.6612 18.4336 21.6522 24.8725 12.4996 24.8725C9.67634 24.8725 7.05804 24.1764 4.85714 22.9775C5.25938 23.0162 5.64643 23.0291 6.05625 23.0291C8.38616 23.0291 10.5263 22.3588 12.2339 21.2244C10.0482 21.1857 8.21161 19.9676 7.5817 18.2918C8.34821 18.3885 9.03884 18.3885 9.82813 18.2145C7.55134 17.8213 5.84375 16.1197 5.84375 14.0637V14.0121C6.50402 14.3279 7.27813 14.5213 8.09018 14.5471C7.40747 14.1614 6.8478 13.6382 6.46112 13.0241C6.07443 12.4101 5.87276 11.7243 5.87411 11.0279C5.87411 10.2416 6.11696 9.51973 6.54955 8.89453C9.00089 11.4598 12.6817 13.1355 16.8103 13.316C16.1045 10.4479 18.6317 8.12109 21.6674 8.12109C23.1018 8.12109 24.392 8.63027 25.3027 9.45527C26.4259 9.2748 27.5036 8.92031 28.4598 8.43691C28.0879 9.4166 27.3063 10.2416 26.2741 10.7637C27.2759 10.6734 28.2473 10.435 29.1429 10.1063C28.4674 10.9506 27.6174 11.6982 26.646 12.2977Z" fill="#FF7628"/>
</svg>
